<svg width="32" height="32" viewBox="0 0 32 32" fill="none" xmlns="http://www.w3.org/2000/svg">
<g id="Trash Icon (Delete)">
<path id="Vector" d="M4 8H6.66667H28" stroke="black" stroke-width="2" stroke-linecap="round" stroke-linejoin="round"/>
<path id="Vector_2" d="M25.3333 7.99999V26.6667C25.3333 27.3739 25.0524 28.0522 24.5523 28.5523C24.0522 29.0524 23.3739 29.3333 22.6667 29.3333H9.33332C8.62608 29.3333 7.9478 29.0524 7.4477 28.5523C6.94761 28.0522 6.66666 27.3739 6.66666 26.6667V7.99999M10.6667 7.99999V5.33332C10.6667 4.62608 10.9476 3.9478 11.4477 3.4477C11.9478 2.94761 12.6261 2.66666 13.3333 2.66666H18.6667C19.3739 2.66666 20.0522 2.94761 20.5523 3.4477C21.0524 3.9478 21.3333 4.62608 21.3333 5.33332V7.99999" stroke="black" stroke-width="2" stroke-linecap="round" stroke-linejoin="round"/>
<path id="Vector_3" d="M13.3333 14.6667V22.6667" stroke="black" stroke-width="2" stroke-linecap="round" stroke-linejoin="round"/>
<path id="Vector_4" d="M18.6667 14.6667V22.6667" stroke="black" stroke-width="2" stroke-linecap="round" stroke-linejoin="round"/>
</g>
</svg>
